<svg id="visual" viewBox="0 0 900 600" width="900" height="600" xmlns="http://www.w3.org/2000/svg" xmlns:xlink="http://www.w3.org/1999/xlink" version="1.1"><g stroke-width="1" stroke-linejoin="bevel"><path d="M488.3 358L513.3 265L409.7 208Z" fill="#b68706" stroke="#b68706"></path><path d="M409.7 208L348.7 370L488.3 358Z" fill="#8a2e06" stroke="#8a2e06"></path><path d="M409.7 208L287.1 201L348.7 370Z" fill="#8a2e06" stroke="#8a2e06"></path><path d="M287.1 201L256.1 372L348.7 370Z" fill="#ba9611" stroke="#ba9611"></path><path d="M513.3 265L474.3 102L409.7 208Z" fill="#ba9611" stroke="#ba9611"></path><path d="M409.7 208L383.7 95L287.1 201Z" fill="#760b08" stroke="#760b08"></path><path d="M256.1 372L388.7 485L348.7 370Z" fill="#811f08" stroke="#811f08"></path><path d="M348.7 370L388.7 485L488.3 358Z" fill="#ba9611" stroke="#ba9611"></path><path d="M474.3 102L383.7 95L409.7 208Z" fill="#8a2e06" stroke="#8a2e06"></path><path d="M388.7 485L540.3 476L488.3 358Z" fill="#b68706" stroke="#b68706"></path><path d="M658.9 392L630.9 212L513.3 265Z" fill="#a45a00" stroke="#a45a00"></path><path d="M513.3 265L627.9 136L474.3 102Z" fill="#a45a00" stroke="#a45a00"></path><path d="M658.9 392L513.3 265L488.3 358Z" fill="#9c4c02" stroke="#9c4c02"></path><path d="M383.7 95L279.1 120L287.1 201Z" fill="#ab6900" stroke="#ab6900"></path><path d="M287.1 201L162.6 322L256.1 372Z" fill="#b68706" stroke="#b68706"></path><path d="M540.3 476L658.9 392L488.3 358Z" fill="#ab6900" stroke="#ab6900"></path><path d="M793.4 131L627.9 136L630.9 212Z" fill="#811f08" stroke="#811f08"></path><path d="M630.9 212L627.9 136L513.3 265Z" fill="#a45a00" stroke="#a45a00"></path><path d="M115.6 212L162.6 322L287.1 201Z" fill="#ab6900" stroke="#ab6900"></path><path d="M256.1 372L225.1 518L388.7 485Z" fill="#b68706" stroke="#b68706"></path><path d="M474.3 102L362.7 0L383.7 95Z" fill="#760b08" stroke="#760b08"></path><path d="M383.7 95L296.1 0L279.1 120Z" fill="#ba9611" stroke="#ba9611"></path><path d="M525.3 0L362.7 0L474.3 102Z" fill="#760b08" stroke="#760b08"></path><path d="M95.6 470L225.1 518L256.1 372Z" fill="#ba9611" stroke="#ba9611"></path><path d="M388.7 485L488.3 600L540.3 476Z" fill="#ba9611" stroke="#ba9611"></path><path d="M250.1 600L423.7 600L388.7 485Z" fill="#bda51c" stroke="#bda51c"></path><path d="M540.3 476L670.9 504L658.9 392Z" fill="#b17801" stroke="#b17801"></path><path d="M627.9 136L525.3 0L474.3 102Z" fill="#b68706" stroke="#b68706"></path><path d="M423.7 600L488.3 600L388.7 485Z" fill="#9c4c02" stroke="#9c4c02"></path><path d="M623.9 600L670.9 504L540.3 476Z" fill="#b68706" stroke="#b68706"></path><path d="M362.7 0L296.1 0L383.7 95Z" fill="#bda51c" stroke="#bda51c"></path><path d="M137.6 115L115.6 212L287.1 201Z" fill="#bda51c" stroke="#bda51c"></path><path d="M137.6 115L287.1 201L279.1 120Z" fill="#8a2e06" stroke="#8a2e06"></path><path d="M162.6 322L95.6 470L256.1 372Z" fill="#ba9611" stroke="#ba9611"></path><path d="M741.4 507L756.4 321L658.9 392Z" fill="#b68706" stroke="#b68706"></path><path d="M658.9 392L756.4 321L630.9 212Z" fill="#b17801" stroke="#b17801"></path><path d="M756.4 321L767.4 253L630.9 212Z" fill="#b68706" stroke="#b68706"></path><path d="M627.9 136L610.9 0L525.3 0Z" fill="#ab6900" stroke="#ab6900"></path><path d="M296.1 0L137.6 115L279.1 120Z" fill="#9c4c02" stroke="#9c4c02"></path><path d="M755.4 0L610.9 0L627.9 136Z" fill="#760b08" stroke="#760b08"></path><path d="M225.1 518L250.1 600L388.7 485Z" fill="#ba9611" stroke="#ba9611"></path><path d="M119.6 600L250.1 600L225.1 518Z" fill="#760b08" stroke="#760b08"></path><path d="M488.3 600L623.9 600L540.3 476Z" fill="#9c4c02" stroke="#9c4c02"></path><path d="M623.9 600L741.4 507L670.9 504Z" fill="#ba9611" stroke="#ba9611"></path><path d="M670.9 504L741.4 507L658.9 392Z" fill="#b17801" stroke="#b17801"></path><path d="M756.4 321L900 272L767.4 253Z" fill="#ba9611" stroke="#ba9611"></path><path d="M0 388L95.6 470L162.6 322Z" fill="#ab6900" stroke="#ab6900"></path><path d="M767.4 253L793.4 131L630.9 212Z" fill="#b17801" stroke="#b17801"></path><path d="M900 272L793.4 131L767.4 253Z" fill="#b17801" stroke="#b17801"></path><path d="M0 99L0 200L115.6 212Z" fill="#b68706" stroke="#b68706"></path><path d="M115.6 212L0 388L162.6 322Z" fill="#8a2e06" stroke="#8a2e06"></path><path d="M296.1 0L116.6 0L137.6 115Z" fill="#bda51c" stroke="#bda51c"></path><path d="M793.4 131L755.4 0L627.9 136Z" fill="#760b08" stroke="#760b08"></path><path d="M95.6 470L119.6 600L225.1 518Z" fill="#9c4c02" stroke="#9c4c02"></path><path d="M0 99L115.6 212L137.6 115Z" fill="#8a2e06" stroke="#8a2e06"></path><path d="M95.6 470L0 498L119.6 600Z" fill="#8a2e06" stroke="#8a2e06"></path><path d="M0 200L0 388L115.6 212Z" fill="#ba9611" stroke="#ba9611"></path><path d="M623.9 600L784.4 600L741.4 507Z" fill="#b17801" stroke="#b17801"></path><path d="M900 366L900 272L756.4 321Z" fill="#760b08" stroke="#760b08"></path><path d="M900 366L756.4 321L741.4 507Z" fill="#b17801" stroke="#b17801"></path><path d="M793.4 131L900 0L755.4 0Z" fill="#811f08" stroke="#811f08"></path><path d="M116.6 0L0 99L137.6 115Z" fill="#9c4c02" stroke="#9c4c02"></path><path d="M900 503L900 366L741.4 507Z" fill="#943d04" stroke="#943d04"></path><path d="M0 388L0 498L95.6 470Z" fill="#8a2e06" stroke="#8a2e06"></path><path d="M900 272L900 111L793.4 131Z" fill="#b17801" stroke="#b17801"></path><path d="M784.4 600L900 503L741.4 507Z" fill="#ab6900" stroke="#ab6900"></path><path d="M116.6 0L0 0L0 99Z" fill="#9c4c02" stroke="#9c4c02"></path><path d="M0 498L0 600L119.6 600Z" fill="#b68706" stroke="#b68706"></path><path d="M900 111L900 0L793.4 131Z" fill="#760b08" stroke="#760b08"></path><path d="M784.4 600L900 600L900 503Z" fill="#b68706" stroke="#b68706"></path></g></svg>